<svg width="18" height="18" viewBox="0 0 18 18" fill="none" xmlns="http://www.w3.org/2000/svg">
<path fill-rule="evenodd" clip-rule="evenodd" d="M1.46676 8.99948C1.46676 5.21948 4.41342 1.46615 9.00009 1.46615C12.7041 1.46615 14.5361 4.20748 15.3161 5.66615H13.0001C12.8233 5.66615 12.6537 5.73638 12.5287 5.86141C12.4037 5.98643 12.3334 6.156 12.3334 6.33281C12.3334 6.50962 12.4037 6.67919 12.5287 6.80422C12.6537 6.92924 12.8233 6.99948 13.0001 6.99948H17.0001C17.1769 6.99948 17.3465 6.92924 17.4715 6.80422C17.5965 6.67919 17.6668 6.50962 17.6668 6.33281V2.33281C17.6668 2.156 17.5965 1.98643 17.4715 1.86141C17.3465 1.73638 17.1769 1.66615 17.0001 1.66615C16.8233 1.66615 16.6537 1.73638 16.5287 1.86141C16.4037 1.98643 16.3334 2.156 16.3334 2.33281V4.75015C15.3948 3.09415 13.2214 0.132812 9.00009 0.132812C3.58276 0.132812 0.133423 4.57948 0.133423 8.99948C0.133423 13.4195 3.58276 17.8661 9.00009 17.8661C11.5921 17.8661 13.7494 16.8395 15.2854 15.2768C16.1005 14.4455 16.747 13.4644 17.1894 12.3875C17.2227 12.3065 17.2397 12.2198 17.2394 12.1322C17.2392 12.0447 17.2217 11.958 17.1879 11.8772C17.1542 11.7964 17.1049 11.7231 17.0428 11.6614C16.9807 11.5996 16.9071 11.5507 16.8261 11.5175C16.7451 11.4842 16.6584 11.4672 16.5708 11.4675C16.4833 11.4677 16.3966 11.4852 16.3158 11.519C16.2351 11.5527 16.1617 11.602 16.1 11.6641C16.0383 11.7262 15.9894 11.7998 15.9561 11.8808C15.5793 12.7981 15.0288 13.6339 14.3348 14.3421C13.0401 15.6621 11.2201 16.5328 9.00009 16.5328C4.41342 16.5328 1.46676 12.7795 1.46676 8.99948Z" fill="black"/>
</svg>
