<svg xmlns="http://www.w3.org/2000/svg" version="1.1" xmlns:xlink="http://www.w3.org/1999/xlink" xmlns:svgjs="http://svgjs.com/svgjs" width="1000" height="1000"><rect width="1000" height="1000" rx="200" ry="200" fill="#c0c0c0"></rect><g transform="matrix(1.4285714285714286,0,0,1.4285714285714286,150,150)"><svg xmlns="http://www.w3.org/2000/svg" version="1.1" xmlns:xlink="http://www.w3.org/1999/xlink" xmlns:svgjs="http://svgjs.com/svgjs" width="490" height="490"><svg width="490" height="490" viewBox="0 0 490 490" fill="none" xmlns="http://www.w3.org/2000/svg">
<path d="M364.8 101.5L408 123.3C423.7 116.7 425.4 114.4 431.7 99.6C442.1 80.1 448.7 26.4 424.3 2.00001C422.4 -1.09999 417.3 0.40001 417.3 4.30001C418.1 15.6 406 58.4 377.2 65.4C372.5 67.7 367.9 70.1 363.6 74C350.8 85.6 360.9 100.3 364.8 101.5Z" fill="#5200FF"></path>
<path d="M245 213.5C187.4 126.4 307.2 0 245 0C109.7 0 0 109.7 0 245C0 380.3 109.7 490 245 490C380.3 490 490 380.3 490 245C490 171.9 341.8 360.9 245 213.5ZM37.7 222.8C37.7 201 55.6 183.1 77.4 183.1C99.2 183.1 117.1 201 117.1 222.8C117.1 244.6 99.2 262.5 77.4 262.5C55.6 262.5 37.7 245 37.7 222.8ZM112 386.6C90.2 386.6 72.3 368.7 72.3 346.9C72.3 325.1 90.2 307.2 112 307.2C134.2 307.2 151.7 324.7 151.7 346.9C151.7 369.1 134.2 386.6 112 386.6ZM142.7 151.3C120.9 151.3 103 133.4 103 111.6C103 89.8 120.9 71.9 142.7 71.9C164.5 71.9 182.4 89.8 182.4 111.6C182.4 133.8 164.9 151.3 142.7 151.3ZM226.7 454.6C204.9 454.6 187 436.7 187 414.9C187 393.1 204.9 375.2 226.7 375.2C248.5 375.2 266.4 393.1 266.4 414.9C266.4 436.7 248.5 454.6 226.7 454.6ZM353.9 414.6C332.1 414.6 314.2 396.7 314.2 374.9C314.2 353.1 332.1 335.2 353.9 335.2C375.7 335.2 393.6 353.1 393.6 374.9C393.6 396.7 375.7 414.6 353.9 414.6Z" fill="#5200FF"></path>
<path d="M342.6 251.6L399.8 141.2L356.6 119.8C356.2 119.8 356.2 119.4 355.8 119.4L305.2 243.8C319.2 251.6 337.2 251.8 342.6 251.6Z" fill="#5200FF"></path>
</svg></svg></g></svg>